<?xml version="1.0" encoding="UTF-8"?>
<svg id="Layer_2" xmlns="http://www.w3.org/2000/svg" version="1.1" viewBox="0 0 593.7 489.2">
  <!-- Generator: Adobe Illustrator 30.1.0, SVG Export Plug-In . SVG Version: 2.1.1 Build 136)  -->
  <defs>
    <style>
      .st0 {
        fill: none;
        stroke-miterlimit: 10;
        stroke-width: 20px;
      }

      .st0, .st1 {
        stroke: #fff;
      }

      .st1 {
        stroke-miterlimit: 10;
        stroke-width: 1px;
      }

      .st1, .st2 {
        fill: #fff;
      }
    </style>
  </defs>
  <g id="Layer_1-2">
    <g>
      <path class="st0" d="M383.2,143.1c13.3-1.6,27.1-.9,40.5-.6"/>
      <path class="st0" d="M423.7,142.4c10.8.3,21.4.3,32.1-.2,15.9-.5,33.2-2.4,46.4,3.1,15.5,6.1,18,24.5,17.1,40.1-.5,11.8-2.6,24-5.3,35.6-6.8,26.9-16.3,56.7-35.6,76.4-14.3,13.4-32.4,25.3-51.7,29.3-19.8,3.5-40.5.1-60.5-.3-9.8-.3-18.7,0-26.9,1.9-11.9,2.6-24,10.2-34.6,17.3-12.8,8.7-25.3,17.1-39.4,23.2-21,9.1-43,16.6-66.2,16.6-15.9.4-32.5-1.3-48.2.2-5.4.5-10.6,1.6-15.8,3.1-16.9,4.6-40.1,15.2-41.5-11-.8-15.3,4.2-32.6,6.8-47.8,1.8-10,2.5-20,1.9-30.1-3.2-41-7.3-55.7,12.8-94.4,7.8-15.2,18.4-27.7,32-37.6,16-12.3,34.2-19.1,54.2-21.7,21.5-3.4,41.6-3.1,63.3,1.4,21.5,3.7,43.9,10.4,65.7,8.1h.2c17.6-2.2,34.8-10.7,52.8-12.5"/>
    </g>
    <path class="st2" d="M319.3,247.4c29.1,12.8,58.4,26.9,86.6,41.6,14.1,7.3,29.7,12.4,42.1,22.7,12.9,10.3,25,22.2,33.4,36.7l-1.6,2.5c-4.6-.2-8.8-.9-13-1.8-19.8-4.5-39-12.1-54.9-24.8-6.2-5-12.3-10.3-18.8-15-12.1-8.9-26.4-19.7-38.1-29.1-12.5-10-25.1-19.9-37.4-30.3l1.6-2.6h0Z"/>
    <circle class="st0" cx="252.6" cy="207.7" r="78.1"/>
    <path class="st2" d="M369.4,248.7c2.7,14.4-3.6,29.1-14.6,38.4-4,3.2-8.6,6-13.8,7.2-1.1-5.2-.8-10.6.4-15.6,3.5-14,13.9-26.1,28-30.1h0Z"/>
    <path class="st2" d="M383.5,257.5c2.7,14.4-3.6,29.1-14.6,38.4-4,3.2-8.6,6-13.8,7.2-1.1-5.2-.8-10.6.4-15.6,3.5-14,13.9-26.1,28-30.1h0Z"/>
    <rect class="st1" x="344.8" y="267.8" width="34.2" height="15.8" rx="1.9" ry="1.9" transform="translate(-63.4 437.2) rotate(-58.1)"/>
    <path class="st2" d="M267.4,18.4c66.4-26.5,144.9-24.9,209.1,7.9,51.6,25.9,92.8,72.9,108.3,128.8,12.1,43,11.7,89.4-.2,132.2-1.7,5.9-4.1,12.2-6.2,18-.8,2-2.9,6.9-3.7,8.8-.8,1.8-3.2,6.7-4,8.6-32.5,66-96,109.9-162.2,138-57.5,23.9-121.1,33.9-183,25.6-42.1-5.8-83.4-20.4-118.7-44.2C55.2,408.5,9.7,357.6,1.5,294.6c-4.4-32.1,1.1-65,13.1-94.9C47.2,120.9,119.4,64.2,197.5,34.4l.5,1.1c-37.9,17.2-73.3,39.6-103.7,67.9-31.4,29.3-57.7,65.1-71.8,105.9-29.2,83.1,4.3,155.8,71.2,208,11.2,8.8,23.1,17.1,35.4,24.3,73.3,42.8,164.2,46.7,244.9,24.5,13.9-3.8,27.8-8.6,41.1-14.1,32.4-13.8,63.8-30.8,90.7-53.7,20.6-17.3,38.5-38,51.9-61.3,1-1.8,3.5-6.4,4.5-8.1.9-1.8,3.2-6.5,4.1-8.3.9-1.9,2.9-6.7,3.7-8.5.8-1.9,2.5-6.8,3.3-8.7,15.4-43.7,15.3-94.9,3.3-139.5-23.3-84.8-94.7-140.4-180-154.4-26.5-4.3-53.6-4.6-80.2-.9-16.5,2.2-32.7,6-48.6,10.9l-.4-1.1h0Z"/>
  </g>
</svg>