<?xml version="1.0" encoding="UTF-8"?>
<svg id="Layer_2" xmlns="http://www.w3.org/2000/svg" version="1.1" viewBox="0 0 591.8 485.4">
  <!-- Generator: Adobe Illustrator 30.1.0, SVG Export Plug-In . SVG Version: 2.1.1 Build 136)  -->
  <defs>
    <style>
      .st0 {
        stroke-linecap: round;
        stroke-linejoin: bevel;
        stroke-width: 2px;
      }

      .st0, .st1 {
        fill: none;
      }

      .st0, .st1, .st2, .st3, .st4 {
        stroke: #333;
      }

      .st1 {
        stroke-width: 7px;
      }

      .st1, .st3, .st4 {
        stroke-miterlimit: 10;
      }

      .st2 {
        stroke-miterlimit: 10;
        stroke-width: 1px;
      }

      .st2, .st4 {
        fill: #333;
      }

      .st3 {
        fill: #2c3e50;
      }
    </style>
  </defs>
  <path class="st1" d="M375.1,110.4c13.3-1.6,27.1-.9,40.5-.6"/>
  <path class="st1" d="M415.6,109.7c10.8.3,21.4.3,32.1-.2,15.9-.5,33.2-2.4,46.4,3.1,15.4,6.1,18,24.5,17.1,40.1-.5,11.8-2.6,24-5.3,35.6-6.8,26.9-16.3,56.7-35.6,76.4-14.3,13.4-32.4,25.3-51.7,29.3-19.8,3.5-40.5.1-60.5-.3-9.8-.3-18.7,0-26.9,1.9-11.8,2.6-24,10.2-34.6,17.3-12.8,8.7-25.3,17.1-39.4,23.2-21,9.1-43,16.6-66.2,16.6-15.9.4-32.5-1.3-48.2.2-5.3.5-10.6,1.6-15.8,3.1-16.9,4.6-40.1,15.2-41.5-11-.8-15.3,4.1-32.6,6.8-47.8,1.8-10,2.5-20,1.9-30.1-3.2-41-7.3-55.7,12.8-94.4,7.8-15.2,18.4-27.7,32-37.6,16-12.3,34.2-19.1,54.1-21.7,21.5-3.4,41.6-3.1,63.3,1.4,21.5,3.7,43.9,10.4,65.7,8.1h.2c17.6-2.2,34.8-10.7,52.8-12.5"/>
  <path class="st4" d="M468.7,310.2c-15.3-12.1-31.3-23.4-48.4-32.8-8.5-4.7-17.2-9.3-25.6-14.2-21.3-12.3-44-25.1-66.4-37.4-.3.7-.6,1.4-.7,2.1-.3,1.2-1.1,2.2-2.1,2.8,0,.3.1.6.1.9,4.6,3.2,9.3,6.4,13.9,9.7,11.9,8.3,36.2,24.8,48.3,32.9,16.2,10.9,31.6,23,48.8,32.3,17.2,9.5,34.7,18.3,53.4,24.8l.9-1.4c-7-7.1-14.5-13.5-22.2-19.6h0Z"/>
  <circle class="st1" cx="262.7" cy="188.6" r="78.1"/>
  <path class="st4" d="M379.3,229.5c-3.6,15.9-15.7,35.4-28.4,45.6,3.5-15.9,15.7-35.4,28.4-45.6h0Z"/>
  <path class="st4" d="M393.1,238.1c-3.4,15.9-15.3,35.6-27.9,45.9,3.3-15.9,15.3-35.6,27.9-45.9h0Z"/>
  <rect class="st2" x="354.8" y="248.5" width="34.2" height="15.8" rx="1.9" ry="1.9" transform="translate(-42.3 436.6) rotate(-58.1)"/>
  <path class="st3" d="M231.8,222.8c27.3-4.9,34.1-20.2,40.1-44.9,2.8-10.5,6.3-22.1,15.4-29,9-6.9,20.9-7.8,31.8-7-28.1.1-38.8,9.6-45.3,36.5-6.1,25-13.9,41.4-42,44.4h0Z"/>
  <line class="st0" x1="231.8" y1="138.8" x2="231.8" y2="223.8"/>
  <polygon class="st3" points="228.5 142.8 231.8 139.4 235.2 142.8 235.2 139.9 231.8 136.5 228.5 139.9 228.5 142.8"/>
  <line class="st0" x1="316.9" y1="222.8" x2="231.8" y2="223.8"/>
  <polygon class="st3" points="312.9 219.5 316.3 222.8 312.9 226.2 315.8 226.2 319.2 222.8 315.7 219.4 312.9 219.5"/>
  <path class="st4" d="M385.6,29.6c70.5,12.2,136.5,54.7,173.9,116.3,30.4,49.1,40.8,110.7,24.8,166.5-12.2,43-36.9,82.3-69.5,112.5-4.5,4.1-9.9,8.3-14.7,12.1-1.7,1.3-6.1,4.3-7.7,5.5-1.6,1.1-6.2,4.1-8,5.2-62.3,39.2-139.4,43.3-210.4,32.5-61.4-9.8-120.9-34.5-169.2-74.1-32.9-27-60.3-61-78-99.9C.5,250.7-11.5,183.5,14.5,125.6c13-29.6,35-54.8,60.9-74C144.4,1.5,235.7-8.9,317.8,6.7l-.2,1.2c-41.3-5.2-83.2-4.7-123.9,3.6-42.1,8.5-83.3,25.2-116.6,52.6C4.5,122.8-1,207.7,33.2,289.9c37.9,97.1,133.2,161.5,232.7,183.1,5.6,1.2,12.7,2.5,18.3,3.4,18.5,2.7,37.1,4.7,55.8,5,39.3.7,79.2-5.7,114.9-22.6,3.3-1.4,7.9-4,11.1-5.6,1.8-1,6.3-3.6,8.1-4.6,1.7-1.1,6.1-3.9,7.8-5,2.9-2,7.3-5,10.1-7.2,38.6-28.9,67.2-74.9,80.8-120.8,24.6-84.5-7.1-169.2-72.4-225.9-20.3-17.5-43.3-32-67.8-42.8-15.2-6.8-31-12-47.1-16.1l.2-1.2h0Z"/>
</svg>